<?xml version="1.0" encoding="utf-8"?>
<!-- Generator: Adobe Illustrator 23.0.6, SVG Export Plug-In . SVG Version: 6.00 Build 0)  -->
<svg version="1.1" id="Layer_1" xmlns="http://www.w3.org/2000/svg" xmlns:xlink="http://www.w3.org/1999/xlink" x="0px" y="0px"
	 viewBox="0 0 70 70" style="enable-background:new 0 0 70 70;" xml:space="preserve">
<style type="text/css">
	.st0{fill:#BDEDF1;}
	.st1{fill:#24C2CE;stroke:#24C2CE;}
</style>
<path class="st0" d="M32,64c17.7,0,32-14.3,32-32S49.7,0,32,0S0,14.3,0,32S14.3,64,32,64z"/>
<path class="st1" d="M36.4,36.2l-13,6c-1.5,0.7-1.6,2.9,0,3.6l13,6.3c0.6,0.3,1.2,0.3,1.8,0l12.5-6.3c1.5-0.7,1.5-2.9,0-3.6l-12.5-6
	C37.6,35.9,36.9,35.9,36.4,36.2z"/>
<path class="st0" d="M36.4,32.6l-13,6c-1.5,0.7-1.6,2.9,0,3.6l13,6.3c0.6,0.3,1.2,0.3,1.8,0l12.5-6.3c1.5-0.7,1.5-2.9,0-3.6l-12.5-6
	C37.6,32.4,36.9,32.4,36.4,32.6z"/>
<path class="st1" d="M36.4,29.1l-13,6c-1.5,0.7-1.6,2.9,0,3.6l13,6.3c0.6,0.3,1.2,0.3,1.8,0l12.5-6.3c1.5-0.7,1.5-2.9,0-3.6l-12.5-6
	C37.6,28.9,36.9,28.9,36.4,29.1z"/>
<path class="st0" d="M36.4,25.6l-13,6c-1.5,0.7-1.6,2.9,0,3.6l13,6.3c0.6,0.3,1.2,0.3,1.8,0l12.5-6.3c1.5-0.7,1.5-2.9,0-3.6l-12.5-6
	C37.6,25.4,36.9,25.4,36.4,25.6z"/>
<path class="st1" d="M36.4,21.9l-13,6c-1.5,0.7-1.6,2.9,0,3.6l13,6.3c0.6,0.3,1.2,0.3,1.8,0l12.5-6.3c1.5-0.7,1.5-2.9,0-3.6l-12.5-6
	C37.6,21.7,36.9,21.6,36.4,21.9z"/>
</svg>
